<svg xmlns="http://www.w3.org/2000/svg" xmlns:xlink="http://www.w3.org/1999/xlink" width="500" zoomAndPan="magnify" viewBox="0 0 375 374.999991" height="500" preserveAspectRatio="xMidYMid meet" version="1.0"><defs><g/><clipPath id="0a02682383"><path d="M 116 84.605469 L 247 84.605469 L 247 234.605469 L 116 234.605469 Z M 116 84.605469 " clip-rule="nonzero"/></clipPath></defs><g clip-path="url(#0a02682383)"><path fill="#069e46" d="M 226.898438 93.910156 C 226.855469 93.886719 225.605469 93.210938 225.5625 93.195312 L 226.898438 93.910156 C 219.953125 89.984375 214.226562 87.488281 206.332031 86.351562 L 207.207031 86.582031 C 201.886719 85.160156 196.0625 84.589844 190.625 84.542969 C 190.632812 84.542969 190.640625 84.542969 190.648438 84.542969 C 190.644531 84.542969 190.632812 84.542969 190.625 84.542969 C 190.953125 84.601562 191.011719 84.609375 191.359375 84.671875 C 191.304688 86.285156 191.292969 86.621094 177.277344 96.480469 C 174.535156 98.410156 171.804688 100.351562 169.105469 102.3125 C 168.160156 99.691406 167.621094 96.761719 168.371094 94.074219 C 175.082031 90.621094 183.761719 86.753906 190.625 84.542969 C 190.625 84.542969 190.621094 84.542969 190.621094 84.542969 C 190.621094 84.542969 190.625 84.542969 190.625 84.542969 C 189.882812 84.566406 189.355469 84.589844 189.089844 84.605469 C 187.953125 84.679688 189.449219 84.589844 190.609375 84.542969 C 186.96875 84.820312 179.054688 87.128906 169.699219 91.316406 C 169.699219 91.3125 169.703125 91.3125 169.703125 91.308594 C 171.148438 89.3125 173.578125 87.664062 177.246094 86.488281 C 181.777344 85.417969 185.679688 84.859375 188.542969 84.644531 C 176.125 85.417969 163.632812 89.207031 152.789062 95.222656 C 145.199219 99.429688 139.253906 104.148438 133.167969 111.441406 C 133.175781 111.433594 133.183594 111.421875 133.195312 111.414062 C 133.1875 111.421875 133.175781 111.433594 133.167969 111.441406 C 129.839844 115.75 127.503906 120.019531 126.039062 124.269531 C 123.023438 128.507812 120.574219 133.0625 118.9375 137.917969 C 115.082031 150.828125 115.570312 159.617188 117.859375 167.355469 C 117.480469 173.054688 118.324219 179.054688 119.636719 182.988281 C 120.871094 186.703125 122.433594 190.390625 124.261719 193.898438 C 124.261719 193.898438 124.261719 193.894531 124.261719 193.894531 C 124.71875 194.589844 127.164062 199.75 133.679688 206.339844 C 136.894531 211.773438 141.375 216 146.445312 219.71875 C 148.710938 221.375 151.070312 222.910156 153.515625 224.3125 C 153.492188 224.296875 153.46875 224.285156 153.449219 224.269531 C 162.84375 229.648438 172.273438 232.167969 182.832031 233.578125 C 185.449219 233.957031 188.855469 234.148438 190.625 234.148438 C 190.449219 234.140625 190.273438 234.128906 190.09375 234.113281 C 190.152344 234.121094 190.214844 234.125 190.273438 234.132812 C 185.230469 233.917969 181.546875 233.160156 178.972656 231.984375 L 178.964844 231.984375 C 175.273438 230.308594 173.5 227.605469 174.089844 223.679688 C 179.726562 226.972656 185.339844 230.296875 190.625 234.148438 C 190.628906 234.148438 190.628906 234.148438 190.632812 234.148438 C 190.636719 234.148438 190.640625 234.148438 190.644531 234.148438 C 190.605469 234.152344 200.054688 234.296875 207.351562 232.273438 C 207.53125 232.273438 211.480469 231.3125 215.203125 230.019531 C 251.707031 216.558594 241.9375 190.066406 224.066406 166.671875 C 245.632812 141.734375 260.0625 113.050781 226.898438 93.910156 Z M 195.585938 84.8125 C 240.550781 88.421875 213.945312 121.03125 197.957031 137.917969 C 183.542969 123.570312 186.597656 126.414062 184.058594 123.773438 C 197.085938 111.308594 221.324219 87.546875 195.464844 84.800781 C 195.46875 84.800781 195.585938 84.8125 195.585938 84.8125 Z M 197.859375 182.054688 C 195.652344 179.644531 193.273438 177.148438 190.734375 174.574219 C 188.390625 172.195312 185.808594 169.582031 183.113281 166.789062 C 186.195312 163.429688 189.136719 160.359375 191.664062 157.710938 C 193.929688 155.339844 196.113281 153.042969 198.203125 150.8125 C 203.003906 155.792969 208.023438 161.207031 212.742188 166.800781 C 207.679688 172.296875 202.527344 177.453125 197.859375 182.054688 Z M 155.753906 206.808594 C 155.949219 206.304688 157.039062 201.753906 161.714844 194.015625 C 166.085938 198.128906 170.679688 202.292969 175.410156 206.511719 C 174.777344 207.484375 171.253906 212.132812 169.503906 217.183594 C 164.632812 213.671875 160.039062 210.222656 155.753906 206.808594 Z M 149.789062 216.992188 C 142.230469 212.023438 138.195312 208.101562 137.019531 207.121094 C 135.148438 202.960938 134.417969 198.621094 134.640625 194.148438 C 137.398438 197.046875 141.902344 201.441406 148.554688 206.761719 C 148.550781 207.453125 147.757812 212.039062 149.789062 216.992188 Z M 129.308594 123.769531 C 133.101562 119.148438 137.445312 114.9375 142.039062 111.140625 C 142 112.011719 140.894531 116.261719 142.792969 123.65625 C 137.90625 128.300781 133.507812 133.078125 129.808594 138.023438 C 128.679688 133.207031 128.445312 128.449219 129.308594 123.769531 Z M 173.296875 123.671875 C 168.804688 127.820312 163.722656 132.617188 158.648438 137.875 C 153.003906 129.613281 150.839844 124.054688 150.707031 123.792969 C 155.34375 119.488281 160.253906 115.292969 165.257812 111.207031 C 165.683594 111.941406 167.578125 116.207031 173.296875 123.671875 Z M 189.273438 141.683594 C 190.101562 142.515625 190.945312 143.378906 191.808594 144.253906 C 187.457031 148.679688 182.148438 154.101562 176.765625 160.074219 C 168.558594 151.175781 163.472656 144.484375 163.433594 144.441406 C 168.082031 139.441406 173.027344 134.460938 178.0625 129.554688 C 178.945312 130.542969 182.441406 134.757812 189.273438 141.683594 Z M 159.148438 182.210938 C 154.125 177.058594 149.464844 171.898438 145.378906 166.753906 C 148.828125 161.554688 152.949219 156.296875 157.5 151.042969 C 157.714844 151.304688 162.152344 157.441406 170.84375 166.84375 C 166.65625 171.808594 162.613281 177 159.148438 182.210938 Z M 144.746094 129.5625 C 144.980469 130.058594 146.898438 135.542969 152.691406 144.277344 C 152.691406 144.277344 152.691406 144.28125 152.691406 144.28125 C 148.246094 149.269531 143.992188 154.5625 140.363281 160.015625 C 136.78125 154.835938 133.882812 149.683594 131.882812 144.585938 C 135.554688 139.445312 139.929688 134.4375 144.746094 129.5625 Z M 136.386719 166.535156 C 133.554688 171.65625 131.398438 176.863281 130.242188 182.058594 C 126.402344 177.105469 123.371094 172.113281 121.238281 167.007812 C 122.417969 161.652344 124.59375 156.417969 127.535156 151.3125 C 129.636719 156.367188 132.652344 161.429688 136.386719 166.535156 Z M 135.453125 188.238281 C 136.546875 183.296875 138.648438 178.222656 141.515625 173.070312 C 145.65625 178.011719 150.378906 183 155.515625 188.054688 C 150.914062 196.054688 149.964844 200.574219 149.550781 201.699219 C 144.257812 197.183594 139.535156 192.714844 135.453125 188.238281 Z M 179.296875 201.480469 C 174.535156 197.148438 169.847656 192.789062 165.359375 188.414062 C 168.914062 183.292969 173.019531 178.214844 177.121094 173.480469 C 180.734375 177.191406 184.140625 180.550781 187.054688 183.425781 C 188.460938 184.816406 190.054688 186.382812 191.734375 188.082031 C 188.011719 191.777344 183.417969 196.488281 179.296875 201.480469 Z M 190.636719 84.542969 C 190.648438 84.542969 190.660156 84.542969 190.671875 84.542969 C 213.945312 85.601562 197.742188 101.226562 179.207031 118.242188 C 175.972656 114.359375 173.066406 110.375 171.027344 106.574219 C 187.792969 93.289062 199.164062 85.289062 190.636719 84.542969 Z M 163.304688 106.589844 C 158.238281 110.40625 153.335938 114.289062 148.742188 118.269531 C 148.539062 117.207031 146.875 112.261719 147.84375 106.625 C 152.625 103.132812 157.523438 100.058594 162.214844 97.398438 C 161.746094 100.054688 162.109375 103.117188 163.304688 106.589844 Z M 168.386719 89.039062 C 165.9375 90.488281 164.191406 92.289062 163.15625 94.445312 C 158.488281 96.828125 153.636719 99.625 148.910156 102.820312 C 149.25 102.214844 150.375 98.570312 155.019531 94.769531 C 159.582031 92.371094 164.113281 90.496094 168.386719 89.039062 Z M 138.074219 106.542969 C 141.675781 103.269531 145.46875 100.453125 149.316406 98.046875 C 146.398438 100.78125 144.402344 103.769531 143.1875 106.949219 C 138.753906 110.359375 134.550781 114.136719 130.847656 118.269531 C 132.351562 114.292969 134.71875 110.378906 138.074219 106.542969 Z M 117.808594 144.5 C 119.363281 139.433594 121.679688 134.695312 124.539062 130.277344 C 123.78125 135.105469 124.09375 139.910156 125.3125 144.71875 C 122.371094 149.671875 120.179688 154.800781 118.933594 160.125 C 117.65625 155.074219 117.257812 149.886719 117.808594 144.5 Z M 122.066406 188.132812 C 120.578125 183.277344 120.035156 178.515625 120.292969 173.84375 C 122.285156 178.214844 125.179688 183.027344 129.359375 188.171875 C 129.085938 192.605469 129.644531 197 131.253906 201.28125 C 130.46875 200.296875 125.933594 195.546875 122.066406 188.132812 Z M 157.207031 225.796875 C 154.480469 224.46875 151.691406 222.929688 148.894531 221.15625 C 144.9375 218.167969 141.882812 215.023438 139.636719 211.753906 C 143.304688 214.761719 147.261719 217.492188 151.335938 219.933594 C 152.886719 222.316406 155.386719 224.644531 157.207031 225.796875 Z M 181.34375 233.34375 C 170.933594 231.746094 163.828125 228.628906 163.277344 228.457031 C 160.664062 226.964844 158.707031 225.226562 157.316406 223.285156 C 162.332031 225.902344 167.378906 228.082031 172.121094 229.789062 C 174.167969 231.375 177.171875 232.597656 181.34375 233.34375 Z M 170.222656 227.875 C 165.707031 225.957031 160.808594 223.582031 155.855469 220.730469 C 154.617188 217.941406 154.316406 214.828125 154.738281 211.503906 C 154.738281 211.503906 154.738281 211.5 154.738281 211.5 C 159.277344 214.832031 163.78125 217.613281 168.671875 220.503906 C 168.671875 221.121094 167.820312 224.636719 170.222656 227.875 Z M 174.8125 220.953125 C 176.445312 216.515625 179.972656 212.296875 180.730469 211.242188 C 191.46875 220.765625 205.742188 232.789062 191.511719 234.082031 C 191.074219 232.585938 183.4375 227 174.8125 220.953125 Z M 190.632812 234.148438 C 190.734375 234.109375 190.863281 234.113281 190.992188 234.125 C 190.890625 234.128906 190.695312 234.144531 190.632812 234.148438 Z M 191.03125 234.128906 C 191.042969 234.128906 191.054688 234.128906 191.066406 234.128906 C 190.644531 234.15625 190.550781 234.152344 191.03125 234.128906 Z M 191.523438 234.113281 C 191.523438 234.109375 191.523438 234.109375 191.519531 234.101562 C 211.5 232.882812 197.964844 218.648438 184.789062 206.492188 C 185.695312 205.5625 187.164062 203.660156 196.25 195 C 196.617188 194.648438 196.984375 194.296875 197.359375 193.941406 C 212.421875 210.238281 227.625 232.546875 191.523438 234.113281 Z M 209.429688 231.625 C 225.113281 226.113281 223.074219 211.589844 203.316406 188.238281 C 208.113281 183.597656 213.164062 178.597656 218.046875 173.359375 C 236.140625 196.789062 245.605469 221.78125 209.429688 231.625 Z M 204.257812 144.25 C 218.128906 128.871094 226.613281 116.695312 226.445312 104.867188 C 226.339844 97.578125 220.367188 90.199219 207.578125 86.675781 C 212.46875 87.996094 214.09375 88.246094 216.835938 89.324219 C 218.964844 90.1875 222.121094 91.433594 224.972656 92.875 C 224.90625 92.84375 224.84375 92.8125 224.78125 92.785156 C 224.78125 92.785156 224.78125 92.78125 224.773438 92.78125 C 222.515625 91.730469 219.691406 90.488281 217.171875 89.460938 C 255.492188 105.351562 240.148438 135.050781 218.742188 160.058594 C 213.992188 154.414062 208.964844 149.0625 204.257812 144.25 Z M 204.257812 144.25 " fill-opacity="1" fill-rule="nonzero"/></g><g fill="#000000" fill-opacity="1"><g transform="translate(119.608893, 268.817565)"><g><path d="M 20.703125 -19.671875 L 8.71875 -19.671875 L 8.71875 -13.984375 L 19.75 -13.984375 L 19.75 -9.0625 L 8.71875 -9.0625 L 8.71875 0 L 2.453125 0 L 2.453125 -24.59375 L 20.703125 -24.59375 Z M 20.703125 -19.671875 "/></g></g></g><g fill="#000000" fill-opacity="1"><g transform="translate(140.822441, 268.817565)"><g><path d="M 3.171875 -26.6875 C 3.773438 -27.28125 4.546875 -27.578125 5.484375 -27.578125 C 6.421875 -27.578125 7.1875 -27.28125 7.78125 -26.6875 C 8.382812 -26.09375 8.6875 -25.328125 8.6875 -24.390625 C 8.6875 -23.453125 8.382812 -22.675781 7.78125 -22.0625 C 7.1875 -21.457031 6.421875 -21.15625 5.484375 -21.15625 C 4.546875 -21.15625 3.773438 -21.457031 3.171875 -22.0625 C 2.578125 -22.675781 2.28125 -23.453125 2.28125 -24.390625 C 2.28125 -25.328125 2.578125 -26.09375 3.171875 -26.6875 Z M 8.46875 0 L 2.421875 0 L 2.421875 -18.9375 L 8.46875 -18.9375 Z M 8.46875 0 "/></g></g></g><g fill="#000000" fill-opacity="1"><g transform="translate(151.745319, 268.817565)"><g><path d="M 14.828125 -19.21875 C 16.910156 -19.21875 18.582031 -18.554688 19.84375 -17.234375 C 21.113281 -15.910156 21.75 -14.148438 21.75 -11.953125 L 21.75 0 L 15.703125 0 L 15.703125 -10.265625 C 15.703125 -11.359375 15.40625 -12.226562 14.8125 -12.875 C 14.21875 -13.519531 13.40625 -13.84375 12.375 -13.84375 C 11.289062 -13.84375 10.40625 -13.488281 9.71875 -12.78125 C 9.03125 -12.082031 8.625 -11.160156 8.5 -10.015625 L 8.5 0 L 2.421875 0 L 2.421875 -18.9375 L 8.5 -18.9375 L 8.5 -15.84375 C 9.832031 -18.050781 11.941406 -19.175781 14.828125 -19.21875 Z M 14.828125 -19.21875 "/></g></g></g><g fill="#000000" fill-opacity="1"><g transform="translate(175.382269, 268.817565)"><g><path d="M 13.453125 -5.234375 L 14.65625 -1.015625 C 13.175781 -0.148438 11.488281 0.28125 9.59375 0.28125 C 7.71875 0.28125 6.195312 -0.238281 5.03125 -1.28125 C 3.875 -2.320312 3.296875 -3.804688 3.296875 -5.734375 L 3.296875 -14.09375 L 0.671875 -14.09375 L 0.671875 -18.0625 L 3.296875 -18.0625 L 3.296875 -23.328125 L 9.34375 -23.328125 L 9.34375 -18.09375 L 14.296875 -18.09375 L 14.296875 -14.09375 L 9.34375 -14.09375 L 9.34375 -6.671875 C 9.34375 -5.953125 9.488281 -5.421875 9.78125 -5.078125 C 10.070312 -4.734375 10.515625 -4.578125 11.109375 -4.609375 C 11.671875 -4.609375 12.453125 -4.816406 13.453125 -5.234375 Z M 13.453125 -5.234375 "/></g></g></g><g fill="#000000" fill-opacity="1"><g transform="translate(190.660238, 268.817565)"><g><path d="M 10.71875 -19.15625 C 14 -19.15625 16.460938 -18.144531 18.109375 -16.125 C 19.765625 -14.113281 20.488281 -11.351562 20.28125 -7.84375 L 6.953125 -7.84375 C 7.265625 -6.71875 7.804688 -5.847656 8.578125 -5.234375 C 9.347656 -4.628906 10.296875 -4.328125 11.421875 -4.328125 C 13.148438 -4.328125 14.660156 -4.96875 15.953125 -6.25 L 19.15625 -3.125 C 17.113281 -0.90625 14.359375 0.203125 10.890625 0.203125 C 7.828125 0.203125 5.382812 -0.671875 3.5625 -2.421875 C 1.75 -4.179688 0.84375 -6.515625 0.84375 -9.421875 C 0.84375 -12.347656 1.75 -14.703125 3.5625 -16.484375 C 5.382812 -18.265625 7.769531 -19.15625 10.71875 -19.15625 Z M 6.859375 -11.109375 L 14.4375 -11.109375 C 14.4375 -12.253906 14.101562 -13.175781 13.4375 -13.875 C 12.769531 -14.582031 11.882812 -14.9375 10.78125 -14.9375 C 9.75 -14.9375 8.882812 -14.585938 8.1875 -13.890625 C 7.488281 -13.203125 7.046875 -12.273438 6.859375 -11.109375 Z M 6.859375 -11.109375 "/></g></g></g><g fill="#000000" fill-opacity="1"><g transform="translate(211.803546, 268.817565)"><g><path d="M 10.6875 -19.15625 C 12.5625 -19.15625 14.226562 -18.785156 15.6875 -18.046875 C 17.15625 -17.304688 18.296875 -16.257812 19.109375 -14.90625 L 14.765625 -12.265625 C 13.828125 -13.578125 12.546875 -14.234375 10.921875 -14.234375 C 9.753906 -14.234375 8.800781 -13.789062 8.0625 -12.90625 C 7.320312 -12.03125 6.953125 -10.878906 6.953125 -9.453125 C 6.953125 -8.003906 7.316406 -6.835938 8.046875 -5.953125 C 8.773438 -5.078125 9.734375 -4.640625 10.921875 -4.640625 C 12.703125 -4.640625 13.992188 -5.351562 14.796875 -6.78125 L 19.21875 -4.1875 C 18.445312 -2.78125 17.316406 -1.695312 15.828125 -0.9375 C 14.335938 -0.175781 12.597656 0.203125 10.609375 0.203125 C 7.679688 0.203125 5.320312 -0.675781 3.53125 -2.4375 C 1.738281 -4.207031 0.84375 -6.535156 0.84375 -9.421875 C 0.84375 -12.328125 1.75 -14.675781 3.5625 -16.46875 C 5.382812 -18.257812 7.757812 -19.15625 10.6875 -19.15625 Z M 10.6875 -19.15625 "/></g></g></g><g fill="#000000" fill-opacity="1"><g transform="translate(231.541975, 268.817565)"><g><path d="M 15.046875 -19.21875 C 17.128906 -19.21875 18.800781 -18.554688 20.0625 -17.234375 C 21.332031 -15.910156 21.96875 -14.148438 21.96875 -11.953125 L 21.96875 0 L 15.890625 0 L 15.890625 -10.265625 C 15.890625 -11.359375 15.585938 -12.226562 14.984375 -12.875 C 14.390625 -13.519531 13.578125 -13.84375 12.546875 -13.84375 C 11.367188 -13.84375 10.429688 -13.421875 9.734375 -12.578125 C 9.035156 -11.734375 8.6875 -10.65625 8.6875 -9.34375 L 8.6875 0 L 2.59375 0 L 2.59375 -26.078125 L 8.6875 -26.078125 L 8.6875 -15.8125 C 10.019531 -18.039062 12.140625 -19.175781 15.046875 -19.21875 Z M 15.046875 -19.21875 "/></g></g></g><g fill="#000000" fill-opacity="1"><g transform="translate(134.696385, 287.121924)"><g><path d="M 3.046875 0 L 0.859375 0 L 0.859375 -8.59375 L 3.046875 -8.59375 Z M 3.046875 0 "/></g></g></g><g fill="#000000" fill-opacity="1"><g transform="translate(141.138599, 287.121924)"><g><path d="M 8.78125 0 L 6.859375 0 L 2.90625 -5.28125 L 2.90625 0 L 0.859375 0 L 0.859375 -8.59375 L 2.78125 -8.59375 L 6.75 -3.28125 L 6.75 -8.59375 L 8.78125 -8.59375 Z M 8.78125 0 "/></g></g></g><g fill="#000000" fill-opacity="1"><g transform="translate(153.322931, 287.121924)"><g><path d="M 5.578125 0 L 3.328125 0 L -0.015625 -8.59375 L 2.3125 -8.59375 L 4.515625 -2.265625 L 6.703125 -8.59375 L 8.953125 -8.59375 Z M 5.578125 0 "/></g></g></g><g fill="#000000" fill-opacity="1"><g transform="translate(164.807903, 287.121924)"><g><path d="M 7.578125 -6.875 L 3.046875 -6.875 L 3.046875 -5.15625 L 7.140625 -5.15625 L 7.140625 -3.453125 L 3.046875 -3.453125 L 3.046875 -1.71875 L 7.71875 -1.71875 L 7.71875 0 L 0.859375 0 L 0.859375 -8.59375 L 7.578125 -8.59375 Z M 7.578125 -6.875 "/></g></g></g><g fill="#000000" fill-opacity="1"><g transform="translate(175.618052, 287.121924)"><g><path d="M 4.15625 -8.6875 C 5.4375 -8.6875 6.566406 -8.367188 7.546875 -7.734375 L 6.71875 -6.015625 C 6.269531 -6.285156 5.785156 -6.503906 5.265625 -6.671875 C 4.753906 -6.835938 4.320312 -6.921875 3.96875 -6.921875 C 3.34375 -6.921875 3.03125 -6.710938 3.03125 -6.296875 C 3.03125 -6.023438 3.1875 -5.804688 3.5 -5.640625 C 3.8125 -5.472656 4.1875 -5.332031 4.625 -5.21875 C 5.070312 -5.101562 5.519531 -4.957031 5.96875 -4.78125 C 6.414062 -4.613281 6.789062 -4.34375 7.09375 -3.96875 C 7.40625 -3.59375 7.5625 -3.117188 7.5625 -2.546875 C 7.5625 -1.722656 7.238281 -1.078125 6.59375 -0.609375 C 5.945312 -0.148438 5.128906 0.078125 4.140625 0.078125 C 3.421875 0.078125 2.710938 -0.0390625 2.015625 -0.28125 C 1.328125 -0.53125 0.722656 -0.867188 0.203125 -1.296875 L 1.0625 -2.984375 C 1.488281 -2.609375 1.992188 -2.296875 2.578125 -2.046875 C 3.171875 -1.804688 3.695312 -1.6875 4.15625 -1.6875 C 4.507812 -1.6875 4.785156 -1.75 4.984375 -1.875 C 5.179688 -2.007812 5.28125 -2.195312 5.28125 -2.4375 C 5.28125 -2.675781 5.164062 -2.875 4.9375 -3.03125 C 4.707031 -3.195312 4.425781 -3.316406 4.09375 -3.390625 C 3.757812 -3.472656 3.394531 -3.578125 3 -3.703125 C 2.613281 -3.835938 2.25 -3.976562 1.90625 -4.125 C 1.570312 -4.28125 1.289062 -4.53125 1.0625 -4.875 C 0.84375 -5.21875 0.734375 -5.625 0.734375 -6.09375 C 0.734375 -6.882812 1.046875 -7.515625 1.671875 -7.984375 C 2.296875 -8.453125 3.125 -8.6875 4.15625 -8.6875 Z M 4.15625 -8.6875 "/></g></g></g><g fill="#000000" fill-opacity="1"><g transform="translate(186.060121, 287.121924)"><g><path d="M 7.421875 -6.828125 L 4.828125 -6.828125 L 4.828125 0 L 2.65625 0 L 2.65625 -6.828125 L 0.078125 -6.828125 L 0.078125 -8.59375 L 7.421875 -8.59375 Z M 7.421875 -6.828125 "/></g></g></g><g fill="#000000" fill-opacity="1"><g transform="translate(196.097287, 287.121924)"><g><path d="M 10.296875 0 L 8.359375 0 L 8.359375 -5.578125 L 6.296875 -0.859375 L 4.875 -0.859375 L 2.8125 -5.578125 L 2.8125 0 L 0.859375 0 L 0.859375 -8.59375 L 3.25 -8.59375 L 5.578125 -3.484375 L 7.90625 -8.59375 L 10.296875 -8.59375 Z M 10.296875 0 "/></g></g></g><g fill="#000000" fill-opacity="1"><g transform="translate(209.80304, 287.121924)"><g><path d="M 7.578125 -6.875 L 3.046875 -6.875 L 3.046875 -5.15625 L 7.140625 -5.15625 L 7.140625 -3.453125 L 3.046875 -3.453125 L 3.046875 -1.71875 L 7.71875 -1.71875 L 7.71875 0 L 0.859375 0 L 0.859375 -8.59375 L 7.578125 -8.59375 Z M 7.578125 -6.875 "/></g></g></g><g fill="#000000" fill-opacity="1"><g transform="translate(220.613185, 287.121924)"><g><path d="M 8.78125 0 L 6.859375 0 L 2.90625 -5.28125 L 2.90625 0 L 0.859375 0 L 0.859375 -8.59375 L 2.78125 -8.59375 L 6.75 -3.28125 L 6.75 -8.59375 L 8.78125 -8.59375 Z M 8.78125 0 "/></g></g></g><g fill="#000000" fill-opacity="1"><g transform="translate(232.797514, 287.121924)"><g><path d="M 7.421875 -6.828125 L 4.828125 -6.828125 L 4.828125 0 L 2.65625 0 L 2.65625 -6.828125 L 0.078125 -6.828125 L 0.078125 -8.59375 L 7.421875 -8.59375 Z M 7.421875 -6.828125 "/></g></g></g></svg>