2<svg xmlns="http://www.w3.org/2000/svg" xmlns:xlink="http://www.w3.org/1999/xlink" width="500" zoomAndPan="magnify" viewBox="0 0 375 374.999991" height="500" preserveAspectRatio="xMidYMid meet" version="1.0"><path fill="#ffffff" d="M 364.246094 325.707031 C 374.882812 336.34375 374.882812 353.609375 364.246094 364.246094 C 353.609375 374.882812 336.34375 374.882812 325.707031 364.246094 L 187.402344 225.941406 L 49.097656 364.246094 C 38.460938 374.882812 21.191406 374.882812 10.558594 364.246094 C -0.078125 353.609375 -0.078125 336.34375 10.558594 325.707031 L 148.863281 187.402344 L 10.558594 49.097656 C -0.078125 38.460938 -0.078125 21.191406 10.558594 10.558594 C 21.191406 -0.078125 38.460938 -0.078125 49.097656 10.558594 L 187.402344 148.863281 L 325.707031 10.558594 C 336.34375 -0.078125 353.609375 -0.078125 364.246094 10.558594 C 374.882812 21.191406 374.882812 38.460938 364.246094 49.097656 L 225.941406 187.402344 Z M 364.246094 325.707031 " fill-opacity="1" fill-rule="nonzero"/></svg>