<svg xmlns="http://www.w3.org/2000/svg" xmlns:xlink="http://www.w3.org/1999/xlink" width="500" zoomAndPan="magnify" viewBox="0 0 375 374.999991" height="500" preserveAspectRatio="xMidYMid meet" version="1.0"><defs><clipPath id="ac77642293"><path d="M 18.75 37.5 L 356.25 37.5 L 356.25 112.605469 L 18.75 112.605469 Z M 18.75 37.5 " clip-rule="nonzero"/></clipPath><clipPath id="a67018127e"><path d="M 56.300781 37.5 L 318.699219 37.5 C 328.65625 37.5 338.207031 41.457031 345.25 48.5 C 352.292969 55.542969 356.25 65.09375 356.25 75.050781 C 356.25 85.011719 352.292969 94.5625 345.25 101.605469 C 338.207031 108.648438 328.65625 112.605469 318.699219 112.605469 L 56.300781 112.605469 C 46.34375 112.605469 36.792969 108.648438 29.75 101.605469 C 22.707031 94.5625 18.75 85.011719 18.75 75.050781 C 18.75 65.09375 22.707031 55.542969 29.75 48.5 C 36.792969 41.457031 46.34375 37.5 56.300781 37.5 Z M 56.300781 37.5 " clip-rule="nonzero"/></clipPath><clipPath id="57d2ce94e2"><path d="M 18.75 150.105469 L 356.25 150.105469 L 356.25 224.894531 L 18.75 224.894531 Z M 18.75 150.105469 " clip-rule="nonzero"/></clipPath><clipPath id="b70dd1fcef"><path d="M 56.144531 150.105469 L 318.855469 150.105469 C 339.507812 150.105469 356.25 166.847656 356.25 187.5 C 356.25 208.152344 339.507812 224.894531 318.855469 224.894531 L 56.144531 224.894531 C 35.492188 224.894531 18.75 208.152344 18.75 187.5 C 18.75 166.847656 35.492188 150.105469 56.144531 150.105469 Z M 56.144531 150.105469 " clip-rule="nonzero"/></clipPath><clipPath id="829cd696f1"><path d="M 18.75 262.394531 L 356.25 262.394531 L 356.25 337.1875 L 18.75 337.1875 Z M 18.75 262.394531 " clip-rule="nonzero"/></clipPath><clipPath id="d3dc913614"><path d="M 56.144531 262.394531 L 318.855469 262.394531 C 339.507812 262.394531 356.25 279.136719 356.25 299.789062 C 356.25 320.441406 339.507812 337.1875 318.855469 337.1875 L 56.144531 337.1875 C 35.492188 337.1875 18.75 320.441406 18.75 299.789062 C 18.75 279.136719 35.492188 262.394531 56.144531 262.394531 Z M 56.144531 262.394531 " clip-rule="nonzero"/></clipPath></defs><g clip-path="url(#ac77642293)"><g clip-path="url(#a67018127e)"><path fill="#05501a" d="M 18.75 37.5 L 356.25 37.5 L 356.25 112.605469 L 18.75 112.605469 Z M 18.75 37.5 " fill-opacity="1" fill-rule="nonzero"/></g></g><g clip-path="url(#57d2ce94e2)"><g clip-path="url(#b70dd1fcef)"><path fill="#05501a" d="M 18.75 150.105469 L 356.25 150.105469 L 356.25 224.894531 L 18.75 224.894531 Z M 18.75 150.105469 " fill-opacity="1" fill-rule="nonzero"/></g></g><g clip-path="url(#829cd696f1)"><g clip-path="url(#d3dc913614)"><path fill="#05501a" d="M 18.75 262.394531 L 356.25 262.394531 L 356.25 337.1875 L 18.75 337.1875 Z M 18.75 262.394531 " fill-opacity="1" fill-rule="nonzero"/></g></g></svg>