<svg xmlns="http://www.w3.org/2000/svg" xmlns:xlink="http://www.w3.org/1999/xlink" width="500" zoomAndPan="magnify" viewBox="0 0 375 374.999991" height="500" preserveAspectRatio="xMidYMid meet" version="1.0"><path fill="#ffffff" d="M 354.277344 374.972656 C 365.703125 374.972656 374.96875 365.707031 374.96875 354.277344 L 374.96875 20.695312 C 374.96875 9.265625 365.703125 0 354.277344 0 L 20.695312 0 C 9.261719 0 0 9.265625 0 20.695312 L 0 354.277344 C 0 365.707031 9.261719 374.972656 20.695312 374.972656 Z M 354.277344 374.972656 " fill-opacity="1" fill-rule="nonzero"/><path fill="#2d4486" d="M 258.722656 374.972656 L 258.722656 229.765625 L 307.464844 229.765625 L 314.761719 173.171875 L 258.722656 173.171875 L 258.722656 137.042969 C 258.722656 120.65625 263.273438 109.492188 286.769531 109.492188 L 316.734375 109.476562 L 316.734375 58.863281 C 311.550781 58.175781 293.765625 56.632812 273.070312 56.632812 C 229.863281 56.632812 200.285156 83.007812 200.285156 131.4375 L 200.285156 173.171875 L 151.417969 173.171875 L 151.417969 229.761719 L 200.285156 229.761719 L 200.285156 374.972656 Z M 258.722656 374.972656 " fill-opacity="1" fill-rule="nonzero"/></svg>