<svg xmlns="http://www.w3.org/2000/svg" xmlns:xlink="http://www.w3.org/1999/xlink" width="500" zoomAndPan="magnify" viewBox="0 0 375 374.999991" height="500" preserveAspectRatio="xMidYMid meet" version="1.0"><path fill="#069e46" d="M 286.027344 23.265625 C 285.921875 23.210938 282.796875 21.515625 282.691406 21.472656 L 286.027344 23.265625 C 268.660156 13.445312 254.339844 7.210938 234.597656 4.367188 L 236.789062 4.9375 C 223.484375 1.390625 208.925781 -0.0429688 195.328125 -0.160156 C 195.347656 -0.160156 195.367188 -0.160156 195.386719 -0.15625 C 195.375 -0.15625 195.34375 -0.15625 195.328125 -0.160156 C 196.148438 -0.0117188 196.292969 0.0117188 197.160156 0.167969 C 197.023438 4.199219 196.992188 5.042969 161.949219 29.695312 C 155.09375 34.515625 148.269531 39.375 141.519531 44.273438 C 139.15625 37.714844 137.808594 30.394531 139.6875 23.675781 C 156.457031 15.046875 178.164062 5.371094 195.324219 -0.160156 C 195.324219 -0.160156 195.316406 -0.160156 195.316406 -0.160156 C 195.316406 -0.160156 195.328125 -0.160156 195.328125 -0.160156 C 193.476562 -0.101562 192.152344 -0.0390625 191.488281 0 C 188.640625 0.1875 192.390625 -0.0429688 195.285156 -0.15625 C 186.183594 0.53125 166.398438 6.308594 143.007812 16.777344 C 143.007812 16.769531 143.011719 16.769531 143.011719 16.765625 C 146.628906 11.769531 152.703125 7.648438 161.875 4.707031 C 173.203125 2.035156 182.957031 0.636719 190.125 0.09375 C 159.070312 2.035156 127.832031 11.503906 100.71875 26.542969 C 81.742188 37.066406 66.878906 48.859375 51.660156 67.101562 C 51.683594 67.078125 51.703125 67.050781 51.726562 67.027344 C 51.707031 67.050781 51.683594 67.078125 51.664062 67.101562 C 43.34375 77.871094 37.5 88.550781 33.839844 99.171875 C 26.292969 109.777344 20.171875 121.160156 16.074219 133.304688 C 6.441406 165.578125 7.65625 187.554688 13.382812 206.90625 C 12.441406 221.152344 14.550781 236.15625 17.824219 245.996094 C 20.914062 255.285156 24.824219 264.503906 29.398438 273.269531 C 29.398438 273.269531 29.398438 273.265625 29.390625 273.265625 C 30.53125 275.007812 36.648438 287.90625 52.941406 304.378906 C 60.976562 317.976562 72.183594 328.535156 84.863281 337.835938 C 90.523438 341.980469 96.425781 345.820312 102.535156 349.320312 C 102.480469 349.28125 102.421875 349.25 102.375 349.214844 C 125.863281 362.664062 149.441406 368.96875 175.839844 372.488281 C 182.382812 373.4375 190.90625 373.921875 195.324219 373.921875 C 194.890625 373.902344 194.449219 373.871094 193.996094 373.828125 C 194.144531 373.847656 194.300781 373.859375 194.449219 373.878906 C 181.835938 373.335938 172.628906 371.445312 166.1875 368.503906 L 166.175781 368.503906 C 156.941406 364.316406 152.507812 357.554688 153.984375 347.742188 C 168.074219 355.976562 182.109375 364.292969 195.324219 373.921875 C 195.324219 373.921875 195.324219 373.921875 195.332031 373.921875 C 195.335938 373.921875 195.335938 373.921875 195.34375 373.921875 C 195.355469 373.921875 195.367188 373.921875 195.378906 373.921875 C 195.273438 373.925781 218.902344 374.285156 237.148438 369.230469 C 237.59375 369.230469 247.480469 366.828125 256.78125 363.589844 C 348.054688 329.9375 323.628906 263.699219 278.941406 205.203125 C 332.867188 142.839844 368.945312 71.121094 286.027344 23.265625 Z M 207.734375 0.515625 C 320.160156 9.542969 253.632812 91.082031 213.664062 133.304688 C 177.621094 97.421875 185.261719 104.53125 178.90625 97.9375 C 211.480469 66.765625 272.085938 7.351562 207.429688 0.488281 C 207.433594 0.488281 207.734375 0.515625 207.734375 0.515625 Z M 213.417969 243.664062 C 207.894531 237.636719 201.949219 231.398438 195.597656 224.957031 C 189.738281 219.011719 183.285156 212.480469 176.542969 205.492188 C 184.253906 197.09375 191.601562 189.410156 197.921875 182.796875 C 203.59375 176.867188 209.046875 171.121094 214.277344 165.546875 C 226.277344 178 238.828125 191.53125 250.625 205.519531 C 237.96875 219.261719 225.085938 232.152344 213.417969 243.664062 Z M 108.132812 305.554688 C 108.628906 304.300781 111.351562 292.914062 123.042969 273.570312 C 133.96875 283.851562 145.457031 294.261719 157.285156 304.816406 C 155.703125 307.246094 146.890625 318.867188 142.515625 331.5 C 130.332031 322.722656 118.847656 314.089844 108.132812 305.554688 Z M 93.214844 331.015625 C 74.324219 318.59375 64.234375 308.785156 61.292969 306.335938 C 56.617188 295.9375 54.792969 285.085938 55.34375 273.902344 C 62.242188 281.144531 73.5 292.132812 90.140625 305.441406 C 90.125 307.167969 88.140625 318.636719 93.214844 331.015625 Z M 42.011719 97.925781 C 51.496094 86.371094 62.359375 75.84375 73.839844 66.34375 C 73.746094 68.527344 70.984375 79.15625 75.730469 97.644531 C 63.507812 109.253906 52.507812 121.199219 43.261719 133.570312 C 40.433594 121.527344 39.855469 109.628906 42.011719 97.925781 Z M 151.996094 97.675781 C 140.765625 108.050781 128.0625 120.050781 115.371094 133.191406 C 101.257812 112.535156 95.847656 98.640625 95.519531 97.988281 C 107.109375 87.222656 119.386719 76.730469 131.902344 66.519531 C 132.960938 68.347656 137.703125 79.019531 151.996094 97.675781 Z M 191.949219 142.714844 C 194.015625 144.800781 196.128906 146.953125 198.289062 149.144531 C 187.40625 160.207031 174.136719 173.769531 160.671875 188.703125 C 140.152344 166.449219 127.433594 149.71875 127.339844 149.609375 C 138.957031 137.105469 151.320312 124.660156 163.917969 112.386719 C 166.125 114.863281 174.863281 125.40625 191.949219 142.714844 Z M 116.621094 244.054688 C 104.0625 231.171875 92.410156 218.269531 82.191406 205.40625 C 90.820312 192.402344 101.121094 179.261719 112.507812 166.121094 C 113.039062 166.777344 124.132812 182.113281 145.863281 205.628906 C 135.394531 218.039062 125.289062 231.019531 116.621094 244.054688 Z M 80.609375 112.414062 C 81.199219 113.648438 85.992188 127.359375 100.476562 149.207031 C 100.476562 149.207031 100.476562 149.210938 100.480469 149.210938 C 89.363281 161.6875 78.730469 174.917969 69.652344 188.554688 C 60.699219 175.605469 53.453125 162.726562 48.445312 149.976562 C 57.632812 137.121094 68.566406 124.597656 80.609375 112.414062 Z M 59.707031 204.859375 C 52.632812 217.660156 47.234375 230.683594 44.34375 243.675781 C 34.746094 231.292969 27.167969 218.808594 21.832031 206.039062 C 24.785156 192.644531 30.222656 179.558594 37.574219 166.796875 C 42.835938 179.429688 50.375 192.089844 59.707031 204.859375 Z M 57.378906 259.117188 C 60.109375 246.765625 65.363281 234.078125 72.535156 221.195312 C 82.886719 233.554688 94.691406 246.019531 107.535156 258.660156 C 96.03125 278.667969 93.65625 289.96875 92.625 292.777344 C 79.386719 281.492188 67.585938 270.316406 57.378906 259.117188 Z M 167 292.238281 C 155.101562 281.40625 143.378906 270.496094 132.148438 259.566406 C 141.039062 246.753906 151.304688 234.066406 161.566406 222.21875 C 170.59375 231.503906 179.113281 239.902344 186.402344 247.089844 C 189.917969 250.5625 193.898438 254.484375 198.097656 258.734375 C 188.789062 267.972656 177.304688 279.75 167 292.238281 Z M 195.355469 -0.160156 C 195.386719 -0.160156 195.417969 -0.160156 195.449219 -0.15625 C 253.640625 2.488281 213.117188 41.5625 166.777344 84.109375 C 158.6875 74.390625 151.425781 64.433594 146.328125 54.929688 C 188.246094 21.710938 216.671875 1.710938 195.355469 -0.160156 Z M 127.019531 54.972656 C 114.34375 64.507812 102.089844 74.222656 90.605469 84.175781 C 90.09375 81.515625 85.933594 69.148438 88.359375 55.058594 C 100.308594 46.328125 112.554688 38.640625 124.289062 31.988281 C 123.121094 38.628906 124.027344 46.285156 127.019531 54.972656 Z M 139.726562 11.082031 C 133.59375 14.703125 129.234375 19.214844 126.644531 24.601562 C 114.96875 30.558594 102.84375 37.554688 91.027344 45.546875 C 91.875 44.027344 94.6875 34.914062 106.296875 25.414062 C 117.707031 19.417969 129.042969 14.730469 139.726562 11.082031 Z M 63.929688 54.847656 C 72.933594 46.664062 82.414062 39.628906 92.039062 33.609375 C 84.746094 40.445312 79.753906 47.917969 76.71875 55.863281 C 65.625 64.394531 55.113281 73.839844 45.855469 84.175781 C 49.617188 74.230469 55.542969 64.445312 63.929688 54.847656 Z M 13.253906 149.757812 C 17.148438 137.09375 22.9375 125.242188 30.085938 114.195312 C 28.191406 126.269531 28.972656 138.285156 32.019531 150.308594 C 24.664062 162.695312 19.183594 175.511719 16.070312 188.828125 C 12.875 176.195312 11.875 163.226562 13.253906 149.757812 Z M 23.90625 258.859375 C 20.183594 246.722656 18.824219 234.808594 19.46875 223.125 C 24.445312 234.066406 31.6875 246.089844 42.132812 258.957031 C 41.453125 270.042969 42.855469 281.03125 46.875 291.734375 C 44.90625 289.277344 33.570312 277.398438 23.90625 258.859375 Z M 111.769531 353.03125 C 104.957031 349.710938 97.980469 345.871094 90.988281 341.429688 C 81.085938 333.957031 73.453125 326.097656 67.832031 317.917969 C 77.003906 325.4375 86.90625 332.269531 97.085938 338.375 C 100.964844 344.332031 107.214844 350.15625 111.769531 353.03125 Z M 172.117188 371.90625 C 146.089844 367.914062 128.328125 360.117188 126.945312 359.679688 C 120.410156 355.957031 115.519531 351.609375 112.046875 346.75 C 124.585938 353.304688 137.199219 358.75 149.058594 363.011719 C 154.175781 366.984375 161.6875 370.035156 172.117188 371.90625 Z M 144.308594 358.234375 C 133.023438 353.441406 120.769531 347.496094 108.386719 340.367188 C 105.296875 333.394531 104.539062 325.605469 105.59375 317.292969 C 105.59375 317.292969 105.59375 317.285156 105.59375 317.285156 C 116.949219 325.617188 128.210938 332.574219 140.433594 339.800781 C 140.433594 341.347656 138.304688 350.132812 144.308594 358.234375 Z M 155.789062 340.925781 C 159.871094 329.832031 168.695312 319.277344 170.585938 316.648438 C 197.441406 340.453125 233.121094 370.515625 197.546875 373.753906 C 196.453125 370.011719 177.355469 356.046875 155.789062 340.925781 Z M 195.34375 373.914062 C 195.597656 373.816406 195.917969 373.828125 196.25 373.859375 C 195.992188 373.871094 195.503906 373.910156 195.34375 373.914062 Z M 196.339844 373.863281 C 196.371094 373.863281 196.402344 373.871094 196.433594 373.871094 C 195.378906 373.933594 195.136719 373.925781 196.339844 373.863281 Z M 197.574219 373.835938 C 197.574219 373.820312 197.570312 373.816406 197.5625 373.804688 C 247.523438 370.757812 213.675781 335.160156 180.730469 304.765625 C 183 302.445312 186.675781 297.679688 209.394531 276.027344 C 210.3125 275.152344 211.230469 274.277344 212.167969 273.382812 C 249.832031 314.132812 287.839844 369.914062 197.574219 373.835938 Z M 242.347656 367.605469 C 281.566406 353.824219 276.464844 317.507812 227.058594 259.125 C 239.058594 247.523438 251.6875 235.015625 263.890625 221.917969 C 309.132812 280.5 332.804688 342.996094 242.347656 367.605469 Z M 229.410156 149.132812 C 264.101562 110.683594 285.3125 80.234375 284.890625 50.660156 C 284.632812 32.4375 269.691406 13.984375 237.714844 5.175781 C 249.941406 8.480469 254.007812 9.101562 260.867188 11.792969 C 266.1875 13.960938 274.082031 17.066406 281.207031 20.671875 C 281.046875 20.597656 280.890625 20.519531 280.730469 20.449219 C 280.730469 20.449219 280.730469 20.4375 280.714844 20.4375 C 275.070312 17.8125 268.007812 14.703125 261.707031 12.136719 C 357.523438 51.871094 319.152344 126.132812 265.628906 188.660156 C 253.75 174.550781 241.1875 161.167969 229.410156 149.132812 Z M 229.410156 149.132812 " fill-opacity="1" fill-rule="nonzero"/></svg>