<svg xmlns="http://www.w3.org/2000/svg" xmlns:xlink="http://www.w3.org/1999/xlink" width="500" zoomAndPan="magnify" viewBox="0 0 375 374.999991" height="500" preserveAspectRatio="xMidYMid meet" version="1.0"><defs><clipPath id="697882da28"><path d="M 1.804688 18.75 L 373.054688 18.75 L 373.054688 87 L 1.804688 87 Z M 1.804688 18.75 " clip-rule="nonzero"/></clipPath><clipPath id="34605592f6"><path d="M 1.804688 153 L 373.054688 153 L 373.054688 222 L 1.804688 222 Z M 1.804688 153 " clip-rule="nonzero"/></clipPath><clipPath id="c47bf84815"><path d="M 1.804688 288 L 373.054688 288 L 373.054688 356.25 L 1.804688 356.25 Z M 1.804688 288 " clip-rule="nonzero"/></clipPath></defs><g clip-path="url(#697882da28)"><path fill="#ffffff" d="M 35.621094 86.25 L 339.371094 86.25 C 340.476562 86.25 341.578125 86.195312 342.679688 86.085938 C 343.777344 85.980469 344.871094 85.816406 345.953125 85.601562 C 347.039062 85.386719 348.109375 85.117188 349.167969 84.796875 C 350.226562 84.476562 351.265625 84.105469 352.285156 83.679688 C 353.304688 83.257812 354.304688 82.785156 355.28125 82.265625 C 356.253906 81.742188 357.203125 81.175781 358.121094 80.5625 C 359.039062 79.949219 359.925781 79.289062 360.78125 78.589844 C 361.636719 77.886719 362.453125 77.144531 363.234375 76.363281 C 364.015625 75.582031 364.757812 74.765625 365.457031 73.910156 C 366.160156 73.054688 366.816406 72.167969 367.433594 71.25 C 368.046875 70.332031 368.613281 69.382812 369.132812 68.410156 C 369.65625 67.433594 370.128906 66.4375 370.550781 65.414062 C 370.972656 64.394531 371.34375 63.355469 371.667969 62.296875 C 371.988281 61.238281 372.253906 60.167969 372.472656 59.085938 C 372.6875 58 372.847656 56.90625 372.957031 55.808594 C 373.066406 54.707031 373.121094 53.605469 373.121094 52.5 C 373.121094 51.394531 373.066406 50.292969 372.957031 49.191406 C 372.847656 48.09375 372.6875 47 372.472656 45.914062 C 372.253906 44.832031 371.988281 43.761719 371.667969 42.703125 C 371.34375 41.644531 370.972656 40.605469 370.550781 39.585938 C 370.128906 38.5625 369.65625 37.566406 369.132812 36.589844 C 368.613281 35.617188 368.046875 34.667969 367.433594 33.75 C 366.816406 32.832031 366.160156 31.945312 365.457031 31.089844 C 364.757812 30.234375 364.015625 29.417969 363.234375 28.636719 C 362.453125 27.855469 361.636719 27.113281 360.78125 26.410156 C 359.925781 25.710938 359.039062 25.050781 358.121094 24.4375 C 357.203125 23.824219 356.253906 23.257812 355.28125 22.734375 C 354.304688 22.214844 353.304688 21.742188 352.285156 21.320312 C 351.265625 20.894531 350.226562 20.523438 349.167969 20.203125 C 348.109375 19.882812 347.039062 19.613281 345.953125 19.398438 C 344.871094 19.183594 343.777344 19.019531 342.679688 18.914062 C 341.578125 18.804688 340.476562 18.75 339.371094 18.75 L 35.621094 18.75 C 34.515625 18.75 33.410156 18.804688 32.3125 18.914062 C 31.210938 19.019531 30.121094 19.183594 29.035156 19.398438 C 27.953125 19.613281 26.878906 19.882812 25.824219 20.203125 C 24.765625 20.523438 23.726562 20.894531 22.703125 21.320312 C 21.683594 21.742188 20.683594 22.214844 19.710938 22.734375 C 18.734375 23.257812 17.789062 23.824219 16.871094 24.4375 C 15.949219 25.050781 15.0625 25.710938 14.210938 26.410156 C 13.355469 27.113281 12.535156 27.855469 11.753906 28.636719 C 10.972656 29.417969 10.230469 30.234375 9.53125 31.089844 C 8.828125 31.945312 8.171875 32.832031 7.558594 33.75 C 6.945312 34.667969 6.375 35.617188 5.855469 36.589844 C 5.332031 37.566406 4.863281 38.5625 4.4375 39.585938 C 4.015625 40.605469 3.644531 41.644531 3.324219 42.703125 C 3.003906 43.761719 2.734375 44.832031 2.519531 45.914062 C 2.300781 47 2.140625 48.09375 2.03125 49.191406 C 1.925781 50.292969 1.871094 51.394531 1.871094 52.5 C 1.871094 53.605469 1.925781 54.707031 2.03125 55.808594 C 2.140625 56.90625 2.300781 58 2.519531 59.085938 C 2.734375 60.167969 3.003906 61.238281 3.324219 62.296875 C 3.644531 63.355469 4.015625 64.394531 4.4375 65.414062 C 4.863281 66.4375 5.332031 67.433594 5.855469 68.410156 C 6.375 69.382812 6.945312 70.332031 7.558594 71.25 C 8.171875 72.167969 8.828125 73.054688 9.53125 73.910156 C 10.230469 74.765625 10.972656 75.582031 11.753906 76.363281 C 12.535156 77.144531 13.355469 77.886719 14.210938 78.589844 C 15.0625 79.289062 15.949219 79.949219 16.871094 80.5625 C 17.789062 81.175781 18.734375 81.742188 19.710938 82.265625 C 20.683594 82.785156 21.683594 83.257812 22.703125 83.679688 C 23.726562 84.105469 24.765625 84.476562 25.824219 84.796875 C 26.878906 85.117188 27.953125 85.386719 29.035156 85.601562 C 30.121094 85.816406 31.210938 85.980469 32.3125 86.085938 C 33.410156 86.195312 34.515625 86.25 35.621094 86.25 Z M 35.621094 86.25 " fill-opacity="1" fill-rule="nonzero"/></g><g clip-path="url(#34605592f6)"><path fill="#ffffff" d="M 339.371094 153.75 L 35.621094 153.75 C 34.515625 153.75 33.410156 153.804688 32.3125 153.914062 C 31.210938 154.019531 30.121094 154.183594 29.035156 154.398438 C 27.953125 154.613281 26.878906 154.882812 25.824219 155.203125 C 24.765625 155.523438 23.726562 155.894531 22.703125 156.320312 C 21.683594 156.742188 20.683594 157.214844 19.710938 157.734375 C 18.734375 158.257812 17.789062 158.824219 16.871094 159.4375 C 15.949219 160.050781 15.0625 160.710938 14.210938 161.410156 C 13.355469 162.113281 12.535156 162.855469 11.753906 163.636719 C 10.972656 164.417969 10.230469 165.234375 9.53125 166.089844 C 8.828125 166.945312 8.171875 167.832031 7.558594 168.75 C 6.945312 169.667969 6.375 170.617188 5.855469 171.589844 C 5.332031 172.566406 4.863281 173.5625 4.4375 174.585938 C 4.015625 175.605469 3.644531 176.644531 3.324219 177.703125 C 3.003906 178.761719 2.734375 179.832031 2.519531 180.914062 C 2.300781 182 2.140625 183.09375 2.03125 184.191406 C 1.925781 185.292969 1.871094 186.394531 1.871094 187.5 C 1.871094 188.605469 1.925781 189.707031 2.03125 190.808594 C 2.140625 191.90625 2.300781 193 2.519531 194.085938 C 2.734375 195.167969 3.003906 196.238281 3.324219 197.296875 C 3.644531 198.355469 4.015625 199.394531 4.4375 200.414062 C 4.863281 201.4375 5.332031 202.433594 5.855469 203.410156 C 6.375 204.382812 6.945312 205.332031 7.558594 206.25 C 8.171875 207.167969 8.828125 208.054688 9.53125 208.910156 C 10.230469 209.765625 10.972656 210.582031 11.753906 211.363281 C 12.535156 212.144531 13.355469 212.886719 14.210938 213.589844 C 15.0625 214.289062 15.949219 214.949219 16.871094 215.5625 C 17.789062 216.175781 18.734375 216.742188 19.710938 217.265625 C 20.683594 217.785156 21.683594 218.257812 22.703125 218.679688 C 23.726562 219.105469 24.765625 219.476562 25.824219 219.796875 C 26.878906 220.117188 27.953125 220.386719 29.035156 220.601562 C 30.121094 220.816406 31.210938 220.980469 32.3125 221.085938 C 33.410156 221.195312 34.515625 221.25 35.621094 221.25 L 339.371094 221.25 C 340.476562 221.25 341.578125 221.195312 342.679688 221.085938 C 343.777344 220.980469 344.871094 220.816406 345.953125 220.601562 C 347.039062 220.386719 348.109375 220.117188 349.167969 219.796875 C 350.226562 219.476562 351.265625 219.105469 352.285156 218.679688 C 353.304688 218.257812 354.304688 217.785156 355.28125 217.265625 C 356.253906 216.742188 357.203125 216.175781 358.121094 215.5625 C 359.039062 214.949219 359.925781 214.289062 360.78125 213.589844 C 361.636719 212.886719 362.453125 212.144531 363.234375 211.363281 C 364.015625 210.582031 364.757812 209.765625 365.457031 208.910156 C 366.160156 208.054688 366.816406 207.167969 367.433594 206.25 C 368.046875 205.332031 368.613281 204.382812 369.132812 203.410156 C 369.65625 202.433594 370.128906 201.4375 370.550781 200.414062 C 370.972656 199.394531 371.34375 198.355469 371.667969 197.296875 C 371.988281 196.238281 372.253906 195.167969 372.472656 194.085938 C 372.6875 193 372.847656 191.90625 372.957031 190.808594 C 373.066406 189.707031 373.121094 188.605469 373.121094 187.5 C 373.121094 186.394531 373.066406 185.292969 372.957031 184.191406 C 372.847656 183.09375 372.6875 182 372.472656 180.914062 C 372.253906 179.832031 371.988281 178.761719 371.667969 177.703125 C 371.34375 176.644531 370.972656 175.605469 370.550781 174.585938 C 370.128906 173.5625 369.65625 172.566406 369.132812 171.589844 C 368.613281 170.617188 368.046875 169.667969 367.433594 168.75 C 366.816406 167.832031 366.160156 166.945312 365.457031 166.089844 C 364.757812 165.234375 364.015625 164.417969 363.234375 163.636719 C 362.453125 162.855469 361.636719 162.113281 360.78125 161.410156 C 359.925781 160.710938 359.039062 160.050781 358.121094 159.4375 C 357.203125 158.824219 356.253906 158.257812 355.28125 157.734375 C 354.304688 157.214844 353.304688 156.742188 352.285156 156.320312 C 351.265625 155.894531 350.226562 155.523438 349.167969 155.203125 C 348.109375 154.882812 347.039062 154.613281 345.953125 154.398438 C 344.871094 154.183594 343.777344 154.019531 342.679688 153.914062 C 341.578125 153.804688 340.476562 153.75 339.371094 153.75 Z M 339.371094 153.75 " fill-opacity="1" fill-rule="nonzero"/></g><g clip-path="url(#c47bf84815)"><path fill="#ffffff" d="M 339.371094 288.75 L 35.621094 288.75 C 34.515625 288.75 33.410156 288.804688 32.3125 288.914062 C 31.210938 289.019531 30.121094 289.183594 29.035156 289.398438 C 27.953125 289.613281 26.878906 289.882812 25.824219 290.203125 C 24.765625 290.523438 23.726562 290.894531 22.703125 291.320312 C 21.683594 291.742188 20.683594 292.214844 19.710938 292.734375 C 18.734375 293.257812 17.789062 293.824219 16.871094 294.4375 C 15.949219 295.050781 15.0625 295.710938 14.210938 296.410156 C 13.355469 297.113281 12.535156 297.855469 11.753906 298.636719 C 10.972656 299.417969 10.230469 300.234375 9.53125 301.089844 C 8.828125 301.945312 8.171875 302.832031 7.558594 303.75 C 6.945312 304.667969 6.375 305.617188 5.855469 306.589844 C 5.332031 307.566406 4.863281 308.5625 4.4375 309.585938 C 4.015625 310.605469 3.644531 311.644531 3.324219 312.703125 C 3.003906 313.761719 2.734375 314.832031 2.519531 315.914062 C 2.300781 317 2.140625 318.09375 2.03125 319.191406 C 1.925781 320.292969 1.871094 321.394531 1.871094 322.5 C 1.871094 323.605469 1.925781 324.707031 2.03125 325.808594 C 2.140625 326.90625 2.300781 328 2.519531 329.085938 C 2.734375 330.167969 3.003906 331.238281 3.324219 332.296875 C 3.644531 333.355469 4.015625 334.394531 4.4375 335.414062 C 4.863281 336.4375 5.332031 337.433594 5.855469 338.410156 C 6.375 339.382812 6.945312 340.332031 7.558594 341.25 C 8.171875 342.167969 8.828125 343.054688 9.53125 343.910156 C 10.230469 344.765625 10.972656 345.582031 11.753906 346.363281 C 12.535156 347.144531 13.355469 347.886719 14.210938 348.589844 C 15.0625 349.289062 15.949219 349.949219 16.871094 350.5625 C 17.789062 351.175781 18.734375 351.742188 19.710938 352.265625 C 20.683594 352.785156 21.683594 353.257812 22.703125 353.679688 C 23.726562 354.105469 24.765625 354.476562 25.824219 354.796875 C 26.878906 355.117188 27.953125 355.386719 29.035156 355.601562 C 30.121094 355.816406 31.210938 355.980469 32.3125 356.085938 C 33.410156 356.195312 34.515625 356.25 35.621094 356.25 L 339.371094 356.25 C 340.476562 356.25 341.578125 356.195312 342.679688 356.085938 C 343.777344 355.980469 344.871094 355.816406 345.953125 355.601562 C 347.039062 355.386719 348.109375 355.117188 349.167969 354.796875 C 350.226562 354.476562 351.265625 354.105469 352.285156 353.679688 C 353.304688 353.257812 354.304688 352.785156 355.28125 352.265625 C 356.253906 351.742188 357.203125 351.175781 358.121094 350.5625 C 359.039062 349.949219 359.925781 349.289062 360.78125 348.589844 C 361.636719 347.886719 362.453125 347.144531 363.234375 346.363281 C 364.015625 345.582031 364.757812 344.765625 365.457031 343.910156 C 366.160156 343.054688 366.816406 342.167969 367.433594 341.25 C 368.046875 340.332031 368.613281 339.382812 369.132812 338.410156 C 369.65625 337.433594 370.128906 336.4375 370.550781 335.414062 C 370.972656 334.394531 371.34375 333.355469 371.667969 332.296875 C 371.988281 331.238281 372.253906 330.167969 372.472656 329.085938 C 372.6875 328 372.847656 326.90625 372.957031 325.808594 C 373.066406 324.707031 373.121094 323.605469 373.121094 322.5 C 373.121094 321.394531 373.066406 320.292969 372.957031 319.191406 C 372.847656 318.09375 372.6875 317 372.472656 315.914062 C 372.253906 314.832031 371.988281 313.761719 371.667969 312.703125 C 371.34375 311.644531 370.972656 310.605469 370.550781 309.585938 C 370.128906 308.5625 369.65625 307.566406 369.132812 306.589844 C 368.613281 305.617188 368.046875 304.667969 367.433594 303.75 C 366.816406 302.832031 366.160156 301.945312 365.457031 301.089844 C 364.757812 300.234375 364.015625 299.417969 363.234375 298.636719 C 362.453125 297.855469 361.636719 297.113281 360.78125 296.410156 C 359.925781 295.710938 359.039062 295.050781 358.121094 294.4375 C 357.203125 293.824219 356.253906 293.257812 355.28125 292.734375 C 354.304688 292.214844 353.304688 291.742188 352.285156 291.320312 C 351.265625 290.894531 350.226562 290.523438 349.167969 290.203125 C 348.109375 289.882812 347.039062 289.613281 345.953125 289.398438 C 344.871094 289.183594 343.777344 289.019531 342.679688 288.914062 C 341.578125 288.804688 340.476562 288.75 339.371094 288.75 Z M 339.371094 288.75 " fill-opacity="1" fill-rule="nonzero"/></g></svg>