<svg xmlns="http://www.w3.org/2000/svg" xmlns:xlink="http://www.w3.org/1999/xlink" width="500" zoomAndPan="magnify" viewBox="0 0 375 374.999991" height="500" preserveAspectRatio="xMidYMid meet" version="1.0"><defs><clipPath id="6e43bcb707"><path d="M 18.75 37.5 L 356.25 37.5 L 356.25 112.289062 L 18.75 112.289062 Z M 18.75 37.5 " clip-rule="nonzero"/></clipPath><clipPath id="82fb5da887"><path d="M 56.144531 37.5 L 318.855469 37.5 C 339.507812 37.5 356.25 54.242188 356.25 74.894531 C 356.25 95.546875 339.507812 112.289062 318.855469 112.289062 L 56.144531 112.289062 C 35.492188 112.289062 18.75 95.546875 18.75 74.894531 C 18.75 54.242188 35.492188 37.5 56.144531 37.5 Z M 56.144531 37.5 " clip-rule="nonzero"/></clipPath><clipPath id="66644d5bf8"><path d="M 18.75 150.105469 L 356.25 150.105469 L 356.25 224.894531 L 18.75 224.894531 Z M 18.75 150.105469 " clip-rule="nonzero"/></clipPath><clipPath id="7efa661a7c"><path d="M 56.144531 150.105469 L 318.855469 150.105469 C 339.507812 150.105469 356.25 166.847656 356.25 187.5 C 356.25 208.152344 339.507812 224.894531 318.855469 224.894531 L 56.144531 224.894531 C 35.492188 224.894531 18.75 208.152344 18.75 187.5 C 18.75 166.847656 35.492188 150.105469 56.144531 150.105469 Z M 56.144531 150.105469 " clip-rule="nonzero"/></clipPath><clipPath id="2d17bc1cd8"><path d="M 18.75 262.394531 L 356.25 262.394531 L 356.25 337.1875 L 18.75 337.1875 Z M 18.75 262.394531 " clip-rule="nonzero"/></clipPath><clipPath id="fed3770a83"><path d="M 56.144531 262.394531 L 318.855469 262.394531 C 339.507812 262.394531 356.25 279.136719 356.25 299.789062 C 356.25 320.441406 339.507812 337.1875 318.855469 337.1875 L 56.144531 337.1875 C 35.492188 337.1875 18.75 320.441406 18.75 299.789062 C 18.75 279.136719 35.492188 262.394531 56.144531 262.394531 Z M 56.144531 262.394531 " clip-rule="nonzero"/></clipPath></defs><g clip-path="url(#6e43bcb707)"><g clip-path="url(#82fb5da887)"><path fill="#ffffff" d="M 18.75 37.5 L 356.25 37.5 L 356.25 112.289062 L 18.75 112.289062 Z M 18.75 37.5 " fill-opacity="1" fill-rule="nonzero"/></g></g><g clip-path="url(#66644d5bf8)"><g clip-path="url(#7efa661a7c)"><path fill="#ffffff" d="M 18.75 150.105469 L 356.25 150.105469 L 356.25 224.894531 L 18.75 224.894531 Z M 18.75 150.105469 " fill-opacity="1" fill-rule="nonzero"/></g></g><g clip-path="url(#2d17bc1cd8)"><g clip-path="url(#fed3770a83)"><path fill="#ffffff" d="M 18.75 262.394531 L 356.25 262.394531 L 356.25 337.1875 L 18.75 337.1875 Z M 18.75 262.394531 " fill-opacity="1" fill-rule="nonzero"/></g></g></svg>